<?xml version="1.0" encoding="UTF-8" standalone="no"?>
<svg
   version="1.1"
   style="display: block;"
   viewBox="0 0 2048 1998"
   width="1394"
   height="1360"
   preserveAspectRatio="none"
   id="svg18"
   sodipodi:docname="svg-ai-generate-svg-2025-11-25.svg"
   inkscape:version="1.4.2 (ebf0e940, 2025-05-08)"
   xmlns:inkscape="http://www.inkscape.org/namespaces/inkscape"
   xmlns:sodipodi="http://sodipodi.sourceforge.net/DTD/sodipodi-0.dtd"
   xmlns="http://www.w3.org/2000/svg"
   xmlns:svg="http://www.w3.org/2000/svg">
  <defs
     id="defs18" />
  <sodipodi:namedview
     id="namedview18"
     pagecolor="#ffffff"
     bordercolor="#000000"
     borderopacity="0.25"
     inkscape:showpageshadow="2"
     inkscape:pageopacity="0.0"
     inkscape:pagecheckerboard="0"
     inkscape:deskcolor="#d1d1d1"
     inkscape:zoom="0.39149867"
     inkscape:cx="461.04883"
     inkscape:cy="671.77751"
     inkscape:window-width="1512"
     inkscape:window-height="861"
     inkscape:window-x="0"
     inkscape:window-y="34"
     inkscape:window-maximized="1"
     inkscape:current-layer="svg18" />
  <path
     style="display:block;fill:#cccccc;stroke-width:1.43413"
     d="m 651.82935,1706.8769 c -21.69049,-3.4424 -36.33507,-9.3123 -90.75046,-36.376 -29.99847,-14.9199 -55.7347,-24.2268 -77.03781,-27.8589 -19.17865,-3.2702 -29.20825,-3.5377 -49.26642,-1.3134 -31.96674,3.5449 -58.03985,12.1292 -93.24025,30.6986 l -23.96605,12.643 -4.05797,-4.1459 c -8.82748,-9.0194 -38.22887,-44.1023 -52.35836,-62.4764 -39.07868,-50.8184 -81.09668,-117.6503 -113.5801,-180.6555 -9.59405,-18.6086 -18.00233,-36.1512 -18.00233,-37.5589 0,-0.4347 377.28748,-0.7904 838.41663,-0.7904 h 838.41667 l -5.5489,14.5769 c -51.6451,135.6703 -84.633,198.246 -128.6732,244.0838 -16.2437,16.9067 -30.3609,27.7685 -47.6023,36.6252 -19.6986,10.1188 -30.2875,12.8913 -52.5976,13.7712 -30.438,1.2005 -49.6505,-3.7895 -87.0125,-22.6 -10.7819,-5.4283 -28.4252,-14.3183 -39.2072,-19.7555 -38.2263,-19.2772 -64.6279,-26.0879 -101.4571,-26.1725 -34.2063,-0.078 -56.6973,5.0854 -89.0601,20.448 -87.7369,41.6492 -104.7612,47.3916 -140.6802,47.4535 -32.0991,0.057 -50.2774,-5.5684 -100.0011,-30.9375 -15.2775,-7.7946 -34.90158,-17.2697 -43.60902,-21.0557 -36.69382,-15.9548 -77.19973,-20.5887 -116.39533,-13.3155 -24.82812,4.6072 -41.32849,11.0536 -86.81039,33.9158 -58.52788,29.42 -83.23289,35.9833 -115.91861,30.7961 z"
     id="path21" />
  <path
     transform="translate(0,0)"
     fill="rgb(23,38,59)"
     d="M 975.265 38.2095 C 1000.86 36.961 1006.1 52.2246 1006.59 74.1092 C 1007.26 103.942 1007.05 133.711 1007.05 163.547 L 1007.03 331.064 L 1007.07 461.064 C 1007.1 485.565 1008.09 517.799 1005.84 541.509 C 1012.9 544.367 1017.26 544.83 1024.63 545.692 C 1026.28 523.298 1030.73 496.514 1034.12 475.005 C 1036.51 459.829 1041.9 399.45 1059.23 397.237 C 1082.78 394.23 1131.6 425.024 1153.55 436.54 C 1171.04 411.648 1199.19 352 1219.91 335.992 C 1224.56 332.4 1230.59 329.549 1236.62 330.539 C 1259.38 334.277 1301.73 406.58 1316.97 427.441 C 1327.11 416.523 1343.04 401.076 1352.31 390.987 C 1390.09 349.857 1420.32 315.515 1445.26 391.974 C 1451.5 411.09 1459.86 436.495 1465.84 457.329 C 1487.24 447.079 1566.74 408.073 1586.15 424.487 C 1602.09 437.961 1601.68 505.345 1602.49 527.859 C 1637.15 524.644 1673.94 522.05 1708.26 528.724 C 1722.98 531.588 1733.42 543.369 1731.21 558.832 C 1726.58 591.267 1714.48 622.638 1706.47 654.66 C 1825.32 686.23 1815.73 701.204 1745.83 785.927 C 1767.45 799.688 1788.84 813.359 1809 829.125 C 1825.62 841.868 1828.79 856.93 1816.17 874.223 C 1802.83 892.507 1787.51 908.752 1772.26 925.427 C 1792.99 940.456 1824.11 963.408 1839.46 983.18 C 1861.69 1011.83 1794.42 1051.35 1774.09 1062.66 C 1794.08 1085.21 1815.24 1112.57 1831.84 1137.87 C 1834.91 1142.55 1838.24 1152.43 1836.08 1157.53 C 1827.77 1177.11 1790.3 1190.97 1772.27 1199.88 C 1822.76 1281.09 1835.53 1292.24 1735.74 1320 C 1739.03 1328.59 1742.73 1342.71 1749.38 1349.06 C 1760.61 1359.78 1815.05 1343.85 1834.94 1358.25 C 1840.26 1362.11 1842.57 1367.88 1843.4 1374.24 C 1847.13 1402.86 1804.37 1498.11 1790.22 1527.1 C 1777.44 1553.54 1763.45 1579.36 1748.29 1604.5 C 1735.29 1625.84 1719.47 1646.52 1704.28 1666.33 C 1730.8 1676.29 1759.42 1682.72 1787.8 1685.01 C 1809.69 1686.94 1853.03 1670.78 1863.81 1698.6 C 1870.22 1713.37 1863.75 1728.91 1847.41 1733.07 C 1783.92 1749.24 1721.87 1731.32 1665.68 1702.66 C 1652.8 1713.08 1638.83 1719.96 1623.85 1726.32 C 1570.87 1748.81 1511.68 1745.14 1459.62 1721.96 C 1438.33 1712.47 1416.15 1700.42 1394.67 1691.13 C 1316.48 1657.29 1268.45 1691.93 1199.13 1722.06 C 1142.43 1746.7 1077.3 1747.07 1020.19 1722.77 C 997.356 1713.05 974.806 1700.61 952.028 1691.01 C 837.247 1639.04 776.781 1746.1 661.629 1741.11 C 572.567 1737.24 530.093 1673.06 447.061 1679.86 C 396.088 1684.03 344.41 1719.97 297.72 1738.38 C 275.967 1746.89 253.095 1752.2 229.819 1754.14 C 214.081 1755.46 177.716 1757.05 170.815 1738.57 C 155.027 1696.29 208.877 1703.06 233.031 1700.89 C 246.252 1699.7 261.373 1696.91 273.706 1691.61 C 268.31 1686.27 263.048 1680.78 257.926 1675.17 C 193.368 1605.65 139.489 1526.92 98.0525 1441.57 C 88.5969 1421.67 65.596 1378.61 86.1486 1359.26 C 91.5962 1354.13 104.175 1352.42 111.737 1352.29 C 133.936 1351.9 156.249 1352.05 178.485 1352.03 L 294.646 1351.95 L 620.687 1351.96 L 841.245 1351.96 C 874.642 1351.94 921.103 1349.63 952.849 1352.65 C 954.924 1337.6 954.129 1306.4 954.168 1290.19 C 895.35 1288.99 832.667 1290.05 773.512 1290.04 L 405.996 1290.15 L 287.032 1290.2 C 260.194 1290.36 233.486 1291.08 206.585 1290.25 C 191.566 1289.79 179.23 1283.17 175.504 1267.6 C 173.22 1258.06 176.65 1250.34 181.583 1242.38 C 195.378 1220.11 210.13 1198.39 224.408 1176.41 L 306.615 1049.55 L 544.484 681.536 L 839.878 224.336 L 913.396 110.741 C 924.614 93.4062 935.744 75.6686 947.216 58.5236 C 954.597 47.4912 961.932 40.5256 975.265 38.2095 z M 325.801 1666.98 C 373.516 1640.12 416.598 1624.71 471.939 1626.26 C 476.361 1626.8 496.011 1629.93 498.622 1629.96 C 540.031 1640.39 562.923 1653.92 601.187 1670.99 C 691.125 1711.12 732.115 1670.46 808.094 1640.28 C 858.257 1619.93 914.348 1619.79 964.612 1639.89 C 983.982 1647.58 1010.72 1661.01 1029.67 1669.63 C 1116.5 1709.14 1170.8 1675.53 1249.68 1641.43 C 1299.3 1619.97 1357.12 1620.17 1407.68 1639.78 C 1431.9 1649.56 1455.06 1661.92 1478.91 1672.5 C 1652.36 1749.41 1732.82 1529.75 1784 1407.56 C 1729.58 1406.74 1673.21 1407.95 1618.68 1407.86 L 1278.7 1407.59 L 550.844 1407.3 L 287.767 1407.52 C 238.092 1407.57 188.54 1408.41 138.907 1407.16 C 183.495 1495.57 254.141 1599.13 325.801 1666.98 z"
     id="path1"
     style="stroke-width:0.85356777;stroke-dasharray:none" />
  <path
     fill="#f5e9d4"
     d="m 1233.98,399.673 43.72,59.427 c 14.91,19.95 26.9,47.279 53.67,23.216 22.66,-20.365 43.13,-46.085 65.76,-65.73 10.09,23.566 18.08,48.435 26.95,72.416 5.5,14.882 13.97,29.796 32.35,24.186 12.14,-3.486 23.19,-8.782 34.79,-13.747 l 56.73,-24.208 c 1.84,30.963 1.6,59.175 4.43,90.681 4.23,5.642 7.68,9.16 13.73,12.902 22.04,0.213 39.74,-0.635 61.77,-2.413 12.93,-1.043 34.12,-2.708 46.52,-1.631 -5.78,21.758 -12.59,45.083 -18.37,66.522 -9.64,35.757 -14.58,44.036 25.15,55.921 16.77,5.015 39.59,11.531 55.88,17.939 -15.38,17.498 -50.87,54.232 -53.17,79.215 -1.11,12.074 22.85,24.381 30.74,30.097 15.11,10.865 33.44,21.752 47.78,34.029 -79.75,93.871 -59.05,67.653 17.75,138.745 -15.12,10.87 -64.78,41.83 -67.57,59.6 -1.5,9.57 5.09,17.84 10.63,24.88 15.84,20.13 34.09,39.82 48.43,60.97 -98.13,40.27 -66.38,41.53 -23.05,119.46 -10.1,3.68 -25.23,8.51 -35.51,10.93 -57.34,13.49 -33.82,41.89 -19.17,82.14 -46.02,1.85 -102.01,0.35 -148.75,0.32 l -51.03,0.07 c -7.74,0.01 -22.46,0.37 -29.67,-0.63 -55.98,-1.2 -115.26,-0.2 -171.5,-0.17 -0.55,-58.38 29.38,-85.17 76.32,-114.03 20.1,-12.36 17.74,-43.93 -5.07,-44.73 -21.29,-0.75 -54.29,28.56 -70.58,42.53 -38.91,33.36 -47.15,66.87 -48.67,116.18 l -240.78,0.26 0.04,-134.85 c 18.14,-0.8 95.73,-8.75 76.82,-50.47 -7.71,-16.99 -46.47,0.56 -60.4,2.25 -13.9,1.68 -31.269,3.06 -45.409,-2.21 -9.977,-3.51 -28.703,-13.42 -19.147,-26.24 13.91,-17.95 42.714,-22.13 63.806,-28.25 18.9,-5.48 67.24,-17.55 57.71,-46.78 -1.5,-4.5 -4.75,-8.2 -9.01,-10.28 -14.97,-7.44 -47.47,7.77 -64.41,13.49 l 0.06,-478.779 c 17.55,3.591 40.02,9.473 57.19,5.86 3.15,-3.928 5.72,-7.552 6.74,-12.606 7.39,-36.75 10.09,-74.507 15.9,-111.557 0.87,-5.559 1.75,-11.455 2.21,-17.021 17.55,8.5 35.82,18.951 53.36,28.1 36.39,18.978 42.47,4.133 59.54,-25.395 10.38,-17.956 22.89,-44.056 34.79,-60.609 z"
     id="path2"
     sodipodi:nodetypes="ccccccccccccsccccccccccccccccccccccccccccccccccccsc" />
  <path
     transform="translate(0,0)"
     fill="rgb(129,100,100)"
     d="M 1233.98 399.673 L 1277.7 459.1 C 1292.61 479.05 1304.6 506.379 1331.37 482.316 C 1354.03 461.951 1374.5 436.231 1397.13 416.586 C 1407.22 440.152 1415.21 465.021 1424.08 489.002 C 1429.58 503.884 1438.05 518.798 1456.43 513.188 C 1468.57 509.702 1479.62 504.406 1491.22 499.441 L 1547.95 475.233 C 1549.79 506.196 1549.55 534.408 1552.38 565.914 C 1556.61 571.556 1560.06 575.074 1566.11 578.816 C 1588.15 579.029 1605.85 578.181 1627.88 576.403 C 1640.81 575.36 1662 573.695 1674.4 574.772 C 1668.62 596.53 1661.81 619.855 1656.03 641.294 C 1646.39 677.051 1641.45 685.33 1681.18 697.215 C 1697.95 702.23 1720.77 708.746 1737.06 715.154 C 1721.68 732.652 1686.19 769.386 1683.89 794.369 C 1682.78 806.443 1706.74 818.75 1714.63 824.466 C 1729.74 835.331 1748.07 846.218 1762.41 858.495 C 1682.66 952.366 1703.36 926.148 1780.16 997.24 C 1765.04 1008.11 1715.38 1039.07 1712.59 1056.84 C 1711.09 1066.41 1717.68 1074.68 1723.22 1081.72 C 1739.06 1101.85 1757.31 1121.54 1771.65 1142.69 C 1673.52 1182.96 1705.27 1184.22 1748.6 1262.15 C 1738.5 1265.83 1723.37 1270.66 1713.09 1273.08 C 1655.75 1286.57 1679.27 1314.97 1693.92 1355.22 C 1647.9 1357.07 1591.91 1355.57 1545.17 1355.54 L 1494.14 1355.61 C 1486.4 1355.62 1471.68 1355.98 1464.47 1354.98 C 1485.07 1290.44 1510.83 1227.73 1531.14 1161.69 C 1569.85 1037.36 1577.26 905.393 1552.72 777.507 C 1544.55 779.026 1531.64 778.932 1526.45 773.483 C 1498.94 744.623 1536.96 731.125 1559.02 724.427 C 1567.24 721.933 1580.12 710.024 1583.96 704.502 C 1618.25 655.447 1565.89 622.714 1525.85 657.579 C 1513.97 667.923 1506.91 685.015 1489.45 688.144 C 1475.72 690.603 1466.54 681.14 1464.13 668.328 C 1459.99 666.087 1449.98 662.585 1445.56 661.069 C 1395.73 644.017 1340.59 635.779 1290.47 656.472 C 1265.16 666.922 1240.42 680.595 1215.58 692.68 C 1205.14 683.529 1197.29 672.697 1187.49 663.828 C 1155.24 634.674 1104.45 604.14 1061.44 598.761 C 1064.59 594.833 1067.16 591.209 1068.18 586.155 C 1075.57 549.405 1078.27 511.648 1084.08 474.598 C 1084.95 469.039 1085.83 463.143 1086.29 457.577 C 1103.84 466.077 1122.11 476.528 1139.65 485.677 C 1176.04 504.655 1182.12 489.81 1199.19 460.282 C 1209.57 442.326 1222.08 416.226 1233.98 399.673 z"
     id="path3" />
  <path
     transform="translate(0,0)"
     fill="rgb(23,38,59)"
     d="M 1464.13 668.328 C 1466.79 659.813 1469.28 652.129 1473.86 644.411 C 1496.88 605.639 1548.68 586.247 1591.62 600.158 C 1610.93 606.24 1626.93 619.916 1635.95 638.042 C 1660.85 687.615 1626.77 747.21 1579.77 767.1 C 1571.17 770.738 1561.74 775.102 1552.72 777.507 C 1544.55 779.026 1531.64 778.932 1526.45 773.483 C 1498.94 744.623 1536.96 731.125 1559.02 724.427 C 1567.24 721.933 1580.12 710.024 1583.96 704.502 C 1618.25 655.447 1565.89 622.714 1525.85 657.579 C 1513.97 667.923 1506.91 685.015 1489.45 688.144 C 1475.72 690.603 1466.54 681.14 1464.13 668.328 z"
     id="path4" />
  <path
     transform="translate(0,0)"
     fill="rgb(23,38,59)"
     d="M 1237.39 502.021 C 1246.63 502.382 1251.91 505.075 1259.4 509.684 C 1261.9 527.963 1266.08 576.681 1261.13 594.709 C 1260.04 598.698 1252.74 601.369 1248.81 602.973 C 1232.08 603.502 1224.41 601.102 1222.94 582.64 C 1221.16 560.223 1219.19 536.36 1222.2 514.062 C 1222.95 508.472 1232.84 504.026 1237.39 502.021 z"
     id="path5" />
  <path
     transform="translate(0,0)"
     fill="rgb(23,38,59)"
     d="M 1121.47 540.151 C 1144.66 538.637 1149.83 561.923 1160.94 578.821 C 1172.49 596.401 1182.64 614.842 1157.14 625.391 C 1136.15 627.976 1119.63 590.098 1110.86 574.699 C 1100.54 556.6 1104.76 547.562 1121.47 540.151 z"
     id="path6" />
  <path
     transform="translate(0,0)"
     fill="rgb(23,38,59)"
     d="M 1582.55 1161.88 C 1595.08 1163.27 1603.14 1170.58 1609.21 1181.03 C 1621.91 1202.88 1654.96 1231.02 1615.83 1244.61 C 1597.28 1246.09 1590.71 1228.3 1580.8 1214.08 C 1566.79 1193.99 1551.2 1174.84 1582.55 1161.88 z"
     id="path7" />
  <path
     transform="translate(0,0)"
     fill="rgb(23,38,59)"
     d="M 1449.08 557.087 C 1505.47 555.062 1441.86 629.907 1423.88 639.479 C 1382.72 631.161 1401.13 608.135 1419.51 585.929 C 1428.41 575.167 1436.87 564.312 1449.08 557.087 z"
     id="path8" />
  <path
     transform="translate(0,0)"
     fill="rgb(23,38,59)"
     d="M 1602.37 1043.06 C 1618.53 1041.98 1659.33 1071.29 1666.23 1087.62 C 1671.9 1101.04 1662.19 1107.32 1651.85 1111.39 C 1636.87 1111.22 1623.77 1099.54 1611.87 1091.77 C 1591.14 1078.23 1572.53 1060.36 1602.37 1043.06 z"
     id="path9" />
  <path
     transform="translate(0,0)"
     fill="rgb(23,38,59)"
     d="M 1609.83 927.189 C 1623.69 926.809 1630.91 931.008 1643.52 934.791 C 1668.14 942.174 1702.67 958.494 1670.68 984.482 C 1659.86 987.623 1632.37 974.768 1621.52 970.553 C 1597.67 961.292 1588.98 946.2 1609.83 927.189 z"
     id="path10" />
  <path
     transform="translate(0,0)"
     fill="rgb(23,38,59)"
     d="M 1344.94 516.028 C 1386.32 514.191 1366.05 553.185 1357.23 574.773 C 1352.61 586.079 1348.79 595.62 1337.93 602.085 C 1300.9 598.782 1312.73 575.828 1323.22 550.246 C 1328.15 538.233 1333.87 523.095 1344.94 516.028 z"
     id="path11" />
  <path
     transform="translate(0,0)"
     fill="rgb(23,38,59)"
     d="M 1595.33 825.221 C 1611.04 824.855 1625.16 824.484 1640.89 825.792 C 1666.24 827.898 1674.01 852.636 1651.97 866.91 C 1639.85 867.883 1603.1 867.54 1592.99 860.38 C 1586.15 855.535 1585.49 851.89 1583.81 844.375 C 1586.35 834.569 1588.24 832.006 1595.33 825.221 z"
     id="path12" />
  <path
     transform="translate(0,0)"
     fill="rgb(23,38,59)"
     d="M 1178.57 792.189 C 1200.8 790.98 1227.76 793.353 1249.22 798.958 C 1267.58 805.212 1268.15 821.092 1263.08 836.709 C 1257.99 852.421 1226.49 854.44 1222.43 863.53 C 1222.53 867.002 1224.1 870.124 1226.5 872.294 C 1247.25 891.081 1269.07 869.703 1289.98 868.391 C 1292.04 868.452 1295.19 869.897 1296.05 871.771 C 1302.45 885.651 1288.83 897.265 1278.53 902.886 C 1262.62 911.577 1246.98 912.99 1229.96 908.34 C 1221.45 904.918 1210.78 899.39 1202.35 895.312 C 1188.81 900.015 1177.84 904.44 1161.89 906.649 C 1141.93 909.412 1117 887.462 1118.67 866.679 C 1119.17 860.497 1129.57 859.562 1134.82 862.458 C 1144.55 867.826 1150.92 874.132 1162.16 877.302 C 1172.3 874.767 1181.81 871.888 1188.8 863.72 C 1190.49 852.527 1157.11 850.568 1152.81 831.814 C 1147.36 808.035 1158.13 799.54 1178.57 792.189 z"
     id="path13" />
  <path
     transform="translate(0,0)"
     fill="rgb(23,38,59)"
     d="M 1088.37 723.451 C 1109.03 722.822 1126.36 738.943 1127.22 759.603 C 1128.07 780.263 1112.15 797.765 1091.5 798.851 C 1077.94 799.564 1065.04 792.935 1057.72 781.492 C 1050.41 770.05 1049.81 755.559 1056.15 743.55 C 1062.49 731.541 1074.79 723.865 1088.37 723.451 z"
     id="path14" />
  <path
     transform="translate(0,0)"
     fill="rgb(23,38,59)"
     d="M 1351.13 755.446 C 1371.65 754.701 1388.93 770.629 1389.85 791.136 C 1390.78 811.642 1375 829.063 1354.51 830.169 C 1333.75 831.289 1316.06 815.273 1315.13 794.509 C 1314.19 773.745 1330.36 756.2 1351.13 755.446 z"
     id="path15" />
  <path
     transform="translate(0,0)"
     fill="rgb(230,182,87)"
     d="M 954.633 139.823 C 957.267 143.338 956.26 241.769 956.261 252.915 L 956.266 444.715 L 956.355 1083.6 C 941.201 1090.56 918.569 1104.55 911.919 1120.42 C 895.248 1160.18 921.75 1195.66 956.194 1212.46 L 956.17 1240.03 L 294.75 1240 L 243.405 1239.97 C 254.774 1225.38 266.664 1205.93 276.875 1190.1 L 327.379 1111.73 L 484.165 868.948 L 954.633 139.823 z"
     id="path16" />
  <path
     transform="translate(0,0)"
     fill="rgb(23,38,59)"
     d="M 1481.33 1825.76 C 1436.35 1832.19 1409.51 1844.67 1367.63 1857.91 C 1324.05 1871.86 1278.07 1876.77 1232.52 1872.34 C 1213.18 1870.45 1182.94 1868.61 1180.29 1843.6 C 1179.61 1836.88 1181.75 1830.19 1186.2 1825.11 C 1200.39 1808.85 1235.4 1818.49 1254.76 1820.1 C 1302.22 1824.05 1345.62 1807.7 1389.85 1793.39 C 1424.27 1781.99 1454.94 1774.16 1491.44 1772.72 C 1542.88 1770.69 1591.72 1784.67 1640.38 1799.77 C 1649.57 1802.62 1658.79 1805.46 1665.92 1812.14 C 1682.54 1827.14 1669.94 1856.81 1647.8 1856.09 C 1627.36 1853.36 1604.73 1843.5 1584.81 1837.22 C 1568.3 1831.94 1551.36 1828.09 1534.19 1825.7 C 1514.81 1823.33 1500.53 1824.1 1481.33 1825.76 z"
     id="path17" />
  <path
     transform="translate(0,0)"
     fill="rgb(23,38,59)"
     d="M 776.57 1775.41 C 805.635 1772.86 872.707 1785.38 898.767 1799.16 C 905.352 1802.63 910.17 1808.71 912.037 1815.91 C 913.906 1823.28 912.688 1831.09 908.665 1837.54 C 899.602 1851.86 885.05 1850.39 870.904 1846.26 C 858.308 1842.57 846.026 1837.93 833.321 1834.57 C 822.216 1831.56 810.842 1829.64 799.363 1828.85 C 747.643 1825.2 679.364 1855 626.764 1867.51 C 586.377 1875.41 545.313 1876.35 504.515 1871.01 C 491.549 1869.31 478.517 1862.62 477.217 1848.13 C 473.632 1808.17 523.228 1820.94 547.336 1822.08 C 628.648 1825.93 695.352 1782.02 776.57 1775.41 z"
     id="path18" />
</svg>
